<?xml version="1.0" encoding="UTF-8" standalone="no"?>
<svg
   xmlns:dc="http://purl.org/dc/elements/1.1/"
   xmlns:cc="http://creativecommons.org/ns#"
   xmlns:rdf="http://www.w3.org/1999/02/22-rdf-syntax-ns#"
   xmlns:svg="http://www.w3.org/2000/svg"
   xmlns="http://www.w3.org/2000/svg"
   id="svg8"
   version="1.1"
   viewBox="0 0 177.70183 17.051867"
   height="17.051867mm"
   width="177.70183mm">
  <defs
     id="defs2" />
  <metadata
     id="metadata5">
    <rdf:RDF>
      <cc:Work
         rdf:about="">
        <dc:format>image/svg+xml</dc:format>
        <dc:type
           rdf:resource="http://purl.org/dc/dcmitype/StillImage" />
        <dc:title></dc:title>
      </cc:Work>
    </rdf:RDF>
  </metadata>
  <g
     transform="translate(-20.958623,-60.935736)"
     id="layer1">
    <flowRoot
       transform="scale(0.26458333)"
       style="font-style:normal;font-weight:normal;font-size:40px;line-height:1.25;font-family:sans-serif;letter-spacing:0px;word-spacing:0px;fill:#000000;fill-opacity:1;stroke:none"
       id="flowRoot815"
       xml:space="preserve"><flowRegion
         id="flowRegion817"><rect
           y="216.8054"
           x="85.714287"
           height="277.85715"
           width="1550"
           id="rect819" /></flowRegion><flowPara
         id="flowPara821"></flowPara></flowRoot>    <g
       id="text825"
       style="font-style:normal;font-variant:normal;font-weight:normal;font-stretch:normal;font-size:16.93333244px;line-height:1.25;font-family:Laila;-inkscape-font-specification:Laila;letter-spacing:0px;word-spacing:0px;fill:#000000;fill-opacity:1;stroke:none;stroke-width:0.26458332"
       aria-label="Les gourmets du coeur">
      <path
         id="path827"
         style="font-style:normal;font-variant:normal;font-weight:normal;font-stretch:normal;font-size:16.93333244px;font-family:Laila;-inkscape-font-specification:Laila;stroke-width:0.26458332"
         d="m 21.381956,71.586802 v -8.873066 q 0,-0.474133 -0.423333,-0.6604 0.338667,-0.524933 0.897467,-0.524933 0.948266,0 0.948266,1.1684 v 8.856133 q 0,0.6096 0.270934,0.880533 0.287866,0.270933 0.931333,0.270933 h 2.777067 q 0.931333,0 1.371599,-0.7112 0.491067,0.169334 0.491067,0.677334 0,1.134533 -1.862666,1.134533 h -2.861734 q -1.3208,0 -1.9304,-0.508 -0.6096,-0.508 -0.6096,-1.710267 z" />
      <path
         id="path829"
         style="font-style:normal;font-variant:normal;font-weight:normal;font-stretch:normal;font-size:16.93333244px;font-family:Laila;-inkscape-font-specification:Laila;stroke-width:0.26458332"
         d="m 34.931533,68.589603 q 0.694266,-0.0508 0.694266,-0.795867 0,-0.762 -0.440266,-1.253067 -0.423334,-0.508 -1.202267,-0.508 -0.778933,0 -1.4224,0.745067 Q 31.9174,67.522803 31.765,68.843603 Z m -3.2004,0.982133 q 0,1.659466 0.7112,2.455333 0.728133,0.795867 2.065866,0.795867 1.337734,0 2.218267,-0.880534 0.254,0.135467 0.254,0.4572 0,0.5588 -0.8128,1.0668 -0.8128,0.491067 -1.9304,0.491067 -1.744133,0 -2.861733,-1.100667 -1.1176,-1.100666 -1.1176,-3.081866 0,-1.998133 1.202267,-3.3528 1.219199,-1.3716 2.793999,-1.3716 1.253067,0 2.032,0.8636 0.795867,0.8636 0.795867,1.964267 0,0.795866 -0.440267,1.185333 -0.423333,0.372533 -1.388533,0.4064 z" />
      <path
         id="path831"
         style="font-style:normal;font-variant:normal;font-weight:normal;font-stretch:normal;font-size:16.93333244px;font-family:Laila;-inkscape-font-specification:Laila;stroke-width:0.26458332"
         d="m 44.825361,67.387336 q -0.270933,0.220133 -0.6604,0.220133 -0.389466,0 -0.6604,-0.2032 0.1016,-0.169333 0.1016,-0.491066 0,-0.321734 -0.389466,-0.626534 -0.389467,-0.3048 -1.1684,-0.3048 -0.778934,0 -1.236134,0.3556 -0.4572,0.338667 -0.4572,0.8128 0,0.474134 0.508,0.8636 0.508,0.372534 1.2192,0.694267 0.7112,0.3048 1.4224,0.6604 0.728134,0.3556 1.236133,0.9144 0.508,0.541866 0.508,1.2192 0,0.999066 -0.948266,1.7272 -0.948267,0.728133 -2.404533,0.728133 -1.456267,0 -2.370667,-0.5588 -0.9144,-0.5588 -0.9144,-1.439333 0,-0.524934 0.287867,-0.8128 0.3048,-0.3048 0.7112,-0.3048 0.423333,0 0.6604,0.287866 -0.237067,0.321734 -0.237067,0.778934 0,0.4572 0.4572,0.795866 0.474133,0.321734 1.354667,0.321734 0.897466,0 1.4224,-0.372534 0.541866,-0.389466 0.541866,-0.931333 0,-0.5588 -0.508,-0.9652 -0.491066,-0.4064 -1.202266,-0.694267 -0.7112,-0.304799 -1.439334,-0.626533 -0.7112,-0.338666 -1.2192,-0.846666 -0.491066,-0.508 -0.491066,-1.151467 0,-1.016 0.880533,-1.693333 0.880533,-0.694267 2.150533,-0.694267 1.286934,0 2.201334,0.474133 0.914399,0.4572 0.914399,1.2192 0.01693,0.4064 -0.270933,0.643467 z" />
      <path
         id="path833"
         style="font-style:normal;font-variant:normal;font-weight:normal;font-stretch:normal;font-size:16.93333244px;font-family:Laila;-inkscape-font-specification:Laila;stroke-width:0.26458332"
         d="m 53.993702,70.316802 q 0.575734,0.677334 1.3716,0.677334 0.795867,0 1.286933,-0.643467 0.491067,-0.6604 0.491067,-1.659466 0,-1.354667 -0.626533,-2.0828 -0.626534,-0.745067 -1.4224,-0.745067 -0.778933,0 -1.27,0.643467 -0.491067,0.643466 -0.491067,1.557866 0,0.169334 0.01693,0.3556 0.08467,1.202267 0.643466,1.896533 z m 2.929467,4.030134 h -2.167467 q -1.202266,0 -1.947333,-0.423334 -0.745067,-0.4064 -0.745067,-1.354666 0,-0.9652 1.151467,-1.439334 -1.286933,-0.948266 -1.286933,-2.590799 0,-1.642534 0.999066,-2.556934 0.999067,-0.931333 2.319867,-0.931333 0.9144,0 1.6764,0.4572 0.1016,-0.8128 0.6096,-1.3208 0.524933,-0.508 1.083733,-0.508 0.575733,0 0.880533,0.270933 0.321734,0.270934 0.321734,0.728134 0,0.440266 -0.3556,0.643466 -0.372534,-0.287866 -0.795867,-0.287866 -0.423333,0 -0.728133,0.270933 -0.287867,0.254 -0.372534,0.677333 0.999067,0.9652 0.999067,2.472267 0,1.507067 -0.999067,2.421466 -0.999066,0.9144 -2.319866,0.9144 -0.6604,0 -1.202267,-0.220133 -0.745066,0.186267 -0.745066,0.728133 0,0.4064 0.372533,0.575734 0.389467,0.169333 1.236133,0.169333 h 1.947333 q 1.236134,0 1.8796,0.541867 0.6604,0.541866 0.6604,1.490133 0,1.253067 -1.236133,2.0828 -1.236133,0.829733 -2.9972,0.829733 -1.761066,0 -2.777066,-0.6604 -1.016,-0.6604 -1.032934,-1.591733 0,-0.491067 0.270934,-0.795867 0.287866,-0.3048 0.7112,-0.389466 0.1016,2.252133 3.081866,2.252133 1.354667,0 2.099733,-0.440267 0.762,-0.423333 0.762,-1.134533 0,-0.880533 -1.354666,-0.880533 z" />
      <path
         id="path835"
         style="font-style:normal;font-variant:normal;font-weight:normal;font-stretch:normal;font-size:16.93333244px;font-family:Laila;-inkscape-font-specification:Laila;stroke-width:0.26458332"
         d="m 66.906957,66.913203 q -0.762,-0.897467 -1.9304,-0.897467 -1.1684,0 -1.811867,0.8128 -0.643466,0.795867 -0.643466,2.353733 0,2.015067 0.778933,2.929467 0.795867,0.897466 1.964267,0.897466 1.168399,0 1.794933,-0.8128 0.626533,-0.8128 0.626533,-2.370666 0,-2.032 -0.778933,-2.912533 z M 62.25029,66.218936 q 1.185334,-1.1684 2.861734,-1.1684 1.676399,0 2.844799,1.185333 1.185334,1.1684 1.185334,3.285067 0,2.099733 -1.185334,3.268133 -1.1684,1.1684 -2.844799,1.1684 -1.6764,0 -2.861734,-1.1684 -1.1684,-1.1684 -1.1684,-3.285066 0,-2.116667 1.1684,-3.285067 z" />
      <path
         id="path837"
         style="font-style:normal;font-variant:normal;font-weight:normal;font-stretch:normal;font-size:16.93333244px;font-family:Laila;-inkscape-font-specification:Laila;stroke-width:0.26458332"
         d="m 78.526924,66.235869 v 6.519333 q 0,0.474134 0.440267,0.6604 -0.3556,0.541867 -0.897467,0.541867 -0.931333,0 -0.931333,-1.185333 v -0.440267 q -0.948266,1.6256 -2.760133,1.6256 -2.861733,0 -2.861733,-2.912533 v -4.7752 q 0,-0.491067 -0.423334,-0.677333 0.321734,-0.541867 0.880534,-0.541867 0.948266,0 0.948266,1.185333 v 4.7244 q 0,1.794933 1.761067,1.794933 0.8128,0 1.456267,-0.491066 0.6604,-0.491067 0.999066,-1.3716 v -4.6228 q 0,-0.491067 -0.440266,-0.677333 0.389466,-0.541867 0.897466,-0.541867 0.931333,0 0.931333,1.185333 z" />
      <path
         id="path839"
         style="font-style:normal;font-variant:normal;font-weight:normal;font-stretch:normal;font-size:16.93333244px;font-family:Laila;-inkscape-font-specification:Laila;stroke-width:0.26458332"
         d="m 82.97616,66.235869 v 0.626534 q 0.7112,-1.811867 2.353733,-1.811867 0.795867,0 1.236134,0.4064 0.440266,0.4064 0.440266,0.948267 0,0.524933 -0.270933,0.8128 -0.270933,0.270933 -0.5588,0.270933 -0.287867,0 -0.524933,-0.06773 0.03387,-0.169334 0.03387,-0.440267 0,-0.846667 -0.846666,-0.846667 -0.5588,0 -1.100667,0.5588 -0.541867,0.5588 -0.762,1.710267 v 4.351866 q 0,0.491067 0.423333,0.6604 -0.3556,0.541867 -0.880533,0.541867 -0.948266,0 -0.948266,-1.185333 v -6.5024 q 0,-0.491067 -0.423334,-0.677333 0.321734,-0.541867 0.880533,-0.541867 0.948267,0 0.948267,1.185333 z" />
      <path
         id="path841"
         style="font-style:normal;font-variant:normal;font-weight:normal;font-stretch:normal;font-size:16.93333244px;font-family:Laila;-inkscape-font-specification:Laila;stroke-width:0.26458332"
         d="m 101.3467,67.963069 v 4.792133 q 0,0.474134 0.42334,0.6604 -0.3048,0.541867 -0.88054,0.541867 -0.948262,0 -0.948262,-1.185333 v -4.707467 q 0,-1.778 -1.557866,-1.778 -0.846667,0 -1.608667,0.694267 -0.762,0.694267 -1.049866,1.862667 v 3.911599 q 0,0.474134 0.440266,0.6604 -0.3556,0.541867 -0.897466,0.541867 -0.931334,0 -0.931334,-1.185333 v -4.707467 q 0,-1.778 -1.557866,-1.778 -0.846667,0 -1.608667,0.677334 -0.762,0.677333 -1.049866,1.811866 v 3.979333 q 0,0.491067 0.423333,0.6604 -0.3556,0.541867 -0.880533,0.541867 -0.948267,0 -0.948267,-1.185333 v -6.5024 q 0,-0.491067 -0.423333,-0.677333 0.321733,-0.541867 0.880533,-0.541867 0.948267,0 0.948267,1.185333 v 0.880534 q 0.440266,-0.9144 1.253066,-1.490134 0.8128,-0.575733 1.8288,-0.575733 1.016,0 1.659467,0.5588 0.6604,0.5588 0.8128,1.6764 0.389466,-0.9652 1.236133,-1.591733 0.846666,-0.643467 1.947333,-0.643467 1.1176,0 1.794935,0.745067 0.69426,0.728133 0.69426,2.167466 z" />
      <path
         id="path843"
         style="font-style:normal;font-variant:normal;font-weight:normal;font-stretch:normal;font-size:16.93333244px;font-family:Laila;-inkscape-font-specification:Laila;stroke-width:0.26458332"
         d="m 108.38648,68.589603 q 0.69427,-0.0508 0.69427,-0.795867 0,-0.762 -0.44027,-1.253067 -0.42333,-0.508 -1.20227,-0.508 -0.77893,0 -1.4224,0.745067 -0.64346,0.745067 -0.79586,2.065867 z m -3.2004,0.982133 q 0,1.659466 0.7112,2.455333 0.72813,0.795867 2.06587,0.795867 1.33773,0 2.21826,-0.880534 0.254,0.135467 0.254,0.4572 0,0.5588 -0.8128,1.0668 -0.8128,0.491067 -1.9304,0.491067 -1.74413,0 -2.86173,-1.100667 -1.1176,-1.100666 -1.1176,-3.081866 0,-1.998133 1.20227,-3.3528 1.2192,-1.3716 2.794,-1.3716 1.25306,0 2.032,0.8636 0.79586,0.8636 0.79586,1.964267 0,0.795866 -0.44026,1.185333 -0.42334,0.372533 -1.38854,0.4064 z" />
      <path
         id="path845"
         style="font-style:normal;font-variant:normal;font-weight:normal;font-stretch:normal;font-size:16.93333244px;font-family:Laila;-inkscape-font-specification:Laila;stroke-width:0.26458332"
         d="m 114.11471,66.286669 v 5.367867 q 0,0.626533 0.23706,0.897466 0.254,0.270934 0.8128,0.270934 1.04987,0 1.9812,-0.897467 0.28787,0.1524 0.28787,0.491067 0,0.575733 -0.74507,1.0668 -0.74506,0.474133 -1.8288,0.474133 -2.16746,0 -2.16746,-2.252133 v -5.418667 q -1.3716,-0.0508 -1.3716,-0.6604 0,-0.321733 0.2032,-0.491066 0.59266,0.08467 0.9144,0.08467 h 0.254 v -1.3716 q 0,-0.474133 -0.42334,-0.677333 0.33867,-0.524933 0.88054,-0.524933 0.9652,0 0.9652,1.185333 v 1.388533 h 2.8448 q 0.0677,0.118534 0.0677,0.287867 0,0.778933 -2.67547,0.778933 z" />
      <path
         id="path847"
         style="font-style:normal;font-variant:normal;font-weight:normal;font-stretch:normal;font-size:16.93333244px;font-family:Laila;-inkscape-font-specification:Laila;stroke-width:0.26458332"
         d="m 125.02718,67.387336 q -0.27094,0.220133 -0.6604,0.220133 -0.38947,0 -0.6604,-0.2032 0.1016,-0.169333 0.1016,-0.491066 0,-0.321734 -0.38947,-0.626534 -0.38947,-0.3048 -1.1684,-0.3048 -0.77893,0 -1.23613,0.3556 -0.4572,0.338667 -0.4572,0.8128 0,0.474134 0.508,0.8636 0.508,0.372534 1.2192,0.694267 0.7112,0.3048 1.4224,0.6604 0.72813,0.3556 1.23613,0.9144 0.508,0.541866 0.508,1.2192 0,0.999066 -0.94827,1.7272 -0.94826,0.728133 -2.40453,0.728133 -1.45627,0 -2.37067,-0.5588 -0.9144,-0.5588 -0.9144,-1.439333 0,-0.524934 0.28787,-0.8128 0.3048,-0.3048 0.7112,-0.3048 0.42333,0 0.6604,0.287866 -0.23707,0.321734 -0.23707,0.778934 0,0.4572 0.4572,0.795866 0.47414,0.321734 1.35467,0.321734 0.89747,0 1.4224,-0.372534 0.54187,-0.389466 0.54187,-0.931333 0,-0.5588 -0.508,-0.9652 -0.49107,-0.4064 -1.20227,-0.694267 -0.7112,-0.304799 -1.43933,-0.626533 -0.7112,-0.338666 -1.2192,-0.846666 -0.49107,-0.508 -0.49107,-1.151467 0,-1.016 0.88053,-1.693333 0.88054,-0.694267 2.15054,-0.694267 1.28693,0 2.20133,0.474133 0.9144,0.4572 0.9144,1.2192 0.0169,0.4064 -0.27093,0.643467 z" />
      <path
         id="path849"
         style="font-style:normal;font-variant:normal;font-weight:normal;font-stretch:normal;font-size:16.93333244px;font-family:Laila;-inkscape-font-specification:Laila;stroke-width:0.26458332"
         d="m 137.76846,66.811603 q -0.762,-0.7112 -1.86267,-0.7112 -1.08373,0 -1.86267,0.948266 -0.762,0.931334 -0.762,2.556934 0,1.625599 0.6604,2.438399 0.67734,0.8128 1.69334,0.8128 1.71026,0 2.1336,-1.9304 z m 1.4224,-4.707467 v 10.651066 q 0,0.491067 0.42333,0.6604 -0.3556,0.541867 -0.89747,0.541867 -0.94826,0 -0.94826,-1.185333 v -0.270934 q -0.762,1.456267 -2.4384,1.456267 -1.4224,0 -2.4892,-1.134533 -1.0668,-1.151467 -1.0668,-3.166533 0,-2.032 1.15146,-3.318934 1.15147,-1.286933 2.77707,-1.286933 1.15147,0 2.06587,0.575733 v -3.488266 q 0,-0.508 -0.42334,-0.677333 0.32174,-0.524934 0.88054,-0.524934 0.9652,0 0.9652,1.1684 z" />
      <path
         id="path851"
         style="font-style:normal;font-variant:normal;font-weight:normal;font-stretch:normal;font-size:16.93333244px;font-family:Laila;-inkscape-font-specification:Laila;stroke-width:0.26458332"
         d="m 149.23682,66.235869 v 6.519333 q 0,0.474134 0.44026,0.6604 -0.3556,0.541867 -0.89746,0.541867 -0.93134,0 -0.93134,-1.185333 v -0.440267 q -0.94826,1.6256 -2.76013,1.6256 -2.86173,0 -2.86173,-2.912533 v -4.7752 q 0,-0.491067 -0.42334,-0.677333 0.32174,-0.541867 0.88054,-0.541867 0.94826,0 0.94826,1.185333 v 4.7244 q 0,1.794933 1.76107,1.794933 0.8128,0 1.45627,-0.491066 0.6604,-0.491067 0.99906,-1.3716 v -4.6228 q 0,-0.491067 -0.44026,-0.677333 0.38946,-0.541867 0.89746,-0.541867 0.93134,0 0.93134,1.185333 z" />
      <path
         id="path853"
         style="font-style:normal;font-variant:normal;font-weight:normal;font-stretch:normal;font-size:16.93333244px;font-family:Laila;-inkscape-font-specification:Laila;stroke-width:0.26458332"
         d="m 162.83826,66.676136 q 0,0.4064 -0.23707,0.643467 -0.23707,0.237066 -0.57573,0.237066 -0.33867,0 -0.5588,-0.135466 0.0508,-0.186267 0.0508,-0.372534 0,-1.032933 -1.27,-1.032933 -1.03294,0 -1.84574,0.948267 -0.8128,0.948266 -0.8128,2.573866 0,1.608667 0.74507,2.421467 0.762,0.8128 1.86267,0.8128 1.40546,0 2.3368,-0.897467 0.22013,0.186267 0.22013,0.491067 0,0.541866 -0.84667,1.0668 -0.84666,0.524933 -1.9304,0.524933 -1.5748,0 -2.6924,-1.083733 -1.1176,-1.083734 -1.1176,-3.081867 0,-2.015066 1.25307,-3.369733 1.27,-1.3716 3.08187,-1.3716 1.0668,0 1.69333,0.474133 0.64347,0.474134 0.64347,1.151467 z" />
      <path
         id="path855"
         style="font-style:normal;font-variant:normal;font-weight:normal;font-stretch:normal;font-size:16.93333244px;font-family:Laila;-inkscape-font-specification:Laila;stroke-width:0.26458332"
         d="m 170.29289,66.913203 q -0.762,-0.897467 -1.9304,-0.897467 -1.1684,0 -1.81187,0.8128 -0.64346,0.795867 -0.64346,2.353733 0,2.015067 0.77893,2.929467 0.79587,0.897466 1.96427,0.897466 1.1684,0 1.79493,-0.8128 0.62653,-0.8128 0.62653,-2.370666 0,-2.032 -0.77893,-2.912533 z m -4.65667,-0.694267 q 1.18534,-1.1684 2.86174,-1.1684 1.6764,0 2.8448,1.185333 1.18533,1.1684 1.18533,3.285067 0,2.099733 -1.18533,3.268133 -1.1684,1.1684 -2.8448,1.1684 -1.6764,0 -2.86174,-1.1684 -1.1684,-1.1684 -1.1684,-3.285066 0,-2.116667 1.1684,-3.285067 z" />
      <path
         id="path857"
         style="font-style:normal;font-variant:normal;font-weight:normal;font-stretch:normal;font-size:16.93333244px;font-family:Laila;-inkscape-font-specification:Laila;stroke-width:0.26458332"
         d="m 178.86486,68.589603 q 0.69426,-0.0508 0.69426,-0.795867 0,-0.762 -0.44026,-1.253067 -0.42334,-0.508 -1.20227,-0.508 -0.77893,0 -1.4224,0.745067 -0.64347,0.745067 -0.79587,2.065867 z m -3.2004,0.982133 q 0,1.659466 0.7112,2.455333 0.72813,0.795867 2.06586,0.795867 1.33774,0 2.21827,-0.880534 0.254,0.135467 0.254,0.4572 0,0.5588 -0.8128,1.0668 -0.8128,0.491067 -1.9304,0.491067 -1.74413,0 -2.86173,-1.100667 -1.1176,-1.100666 -1.1176,-3.081866 0,-1.998133 1.20226,-3.3528 1.2192,-1.3716 2.794,-1.3716 1.25307,0 2.032,0.8636 0.79587,0.8636 0.79587,1.964267 0,0.795866 -0.44027,1.185333 -0.42333,0.372533 -1.38853,0.4064 z" />
      <path
         id="path859"
         style="font-style:normal;font-variant:normal;font-weight:normal;font-stretch:normal;font-size:16.93333244px;font-family:Laila;-inkscape-font-specification:Laila;stroke-width:0.26458332"
         d="m 190.18109,66.235869 v 6.519333 q 0,0.474134 0.44027,0.6604 -0.3556,0.541867 -0.89747,0.541867 -0.93133,0 -0.93133,-1.185333 v -0.440267 q -0.94827,1.6256 -2.76013,1.6256 -2.86174,0 -2.86174,-2.912533 v -4.7752 q 0,-0.491067 -0.42333,-0.677333 0.32173,-0.541867 0.88053,-0.541867 0.94827,0 0.94827,1.185333 v 4.7244 q 0,1.794933 1.76107,1.794933 0.8128,0 1.45626,-0.491066 0.6604,-0.491067 0.99907,-1.3716 v -4.6228 q 0,-0.491067 -0.44027,-0.677333 0.38947,-0.541867 0.89747,-0.541867 0.93133,0 0.93133,1.185333 z" />
      <path
         id="path861"
         style="font-style:normal;font-variant:normal;font-weight:normal;font-stretch:normal;font-size:16.93333244px;font-family:Laila;-inkscape-font-specification:Laila;stroke-width:0.26458332"
         d="m 194.63031,66.235869 v 0.626534 q 0.7112,-1.811867 2.35374,-1.811867 0.79586,0 1.23613,0.4064 0.44027,0.4064 0.44027,0.948267 0,0.524933 -0.27094,0.8128 -0.27093,0.270933 -0.5588,0.270933 -0.28786,0 -0.52493,-0.06773 0.0339,-0.169334 0.0339,-0.440267 0,-0.846667 -0.84667,-0.846667 -0.5588,0 -1.10067,0.5588 -0.54186,0.5588 -0.762,1.710267 v 4.351866 q 0,0.491067 0.42334,0.6604 -0.3556,0.541867 -0.88054,0.541867 -0.94826,0 -0.94826,-1.185333 v -6.5024 q 0,-0.491067 -0.42334,-0.677333 0.32174,-0.541867 0.88054,-0.541867 0.94826,0 0.94826,1.185333 z" />
    </g>
  </g>
</svg>
